<svg xmlns="http://www.w3.org/2000/svg" xmlns:xlink="http://www.w3.org/1999/xlink" fill="none" version="1.1" width="158" height="24" viewBox="0 0 158 24"><defs><filter id="master_svg0_2_0421" filterUnits="objectBoundingBox" color-interpolation-filters="sRGB" x="0" y="0" width="1" height="1"><feFlood flood-opacity="0" result="BackgroundImageFix"/><feBlend mode="normal" in="SourceGraphic" in2="BackgroundImageFix" result="shape"/><feGaussianBlur stdDeviation="0" result="effect1_foregroundBlur"/></filter><filter id="master_svg1_2_0424" filterUnits="objectBoundingBox" color-interpolation-filters="sRGB" x="0" y="0" width="1" height="1"><feFlood flood-opacity="0" result="BackgroundImageFix"/><feBlend mode="normal" in="SourceGraphic" in2="BackgroundImageFix" result="shape"/><feGaussianBlur stdDeviation="0" result="effect1_foregroundBlur"/></filter><filter id="master_svg2_2_0427" filterUnits="objectBoundingBox" color-interpolation-filters="sRGB" x="0" y="0" width="1" height="1"><feFlood flood-opacity="0" result="BackgroundImageFix"/><feBlend mode="normal" in="SourceGraphic" in2="BackgroundImageFix" result="shape"/><feGaussianBlur stdDeviation="0" result="effect1_foregroundBlur"/></filter></defs><g><g><rect x="0" y="0" width="158" height="24" rx="0" fill="#D8D8D8" fill-opacity="0"/></g><g><path d="M153.27401733398438,19.360000228881837L153.27401733398438,15.760000228881836L156.87401733398437,15.760000228881836L156.87401733398437,19.360000228881837L153.27401733398438,19.360000228881837Z" fill="#B3D4FF" fill-opacity="1"/></g><g><path d="M118.24599725341797,19.35999850463867L114.87999725341797,8.469998504638673L118.35399725341797,8.469998504638673L119.97399725341796,15.453998504638673L120.08199725341797,15.453998504638673L121.73799725341797,8.469998504638673L125.04999725341797,8.469998504638673L126.72399725341796,15.453998504638673L126.83199725341797,15.453998504638673L128.43399725341797,8.469998504638673L131.90799725341796,8.469998504638673L128.54199725341797,19.35999850463867L125.22999725341796,19.35999850463867L123.44799725341797,12.50199850463867L123.33999725341798,12.50199850463867L121.55799725341797,19.35999850463867L118.24599725341797,19.35999850463867ZM142.72599725341797,13.149998504638672Q142.72599725341797,14.28399850463867,142.47399725341796,15.183998504638673L135.74199725341796,15.183998504638673Q136.08399725341798,16.98399850463867,137.82999725341796,16.98399850463867Q138.47799725341798,16.98399850463867,138.98199725341797,16.59699850463867Q139.48599725341796,16.209998504638673,139.77399725341797,15.561998504638673L142.43799725341796,16.659998504638672Q141.89799725341797,18.063998504638672,140.69199725341798,18.83799850463867Q139.48599725341796,19.61199850463867,137.81199725341796,19.61199850463867Q136.15599725341798,19.61199850463867,134.91399725341796,18.927998504638673Q133.67199725341797,18.24399850463867,132.99699725341796,16.98399850463867Q132.32199725341798,15.723998504638672,132.32199725341798,14.031998504638672Q132.32199725341798,12.267998504638673,132.97899725341796,10.953998504638673Q133.63599725341797,9.639998504638672,134.85099725341797,8.928998504638672Q136.06599725341798,8.217998504638672,137.68599725341798,8.217998504638672Q139.19799725341798,8.217998504638672,140.34099725341798,8.820998504638672Q141.48399725341795,9.423998504638671,142.10499725341796,10.539998504638671Q142.72599725341797,11.655998504638672,142.72599725341797,13.149998504638672ZM139.43199725341796,12.555998504638673Q139.43199725341796,11.781998504638672,138.96399725341797,11.313998504638672Q138.49599725341795,10.845998504638672,137.68599725341798,10.845998504638672Q136.20999725341795,10.845998504638672,135.79599725341797,12.555998504638673L139.43199725341796,12.555998504638673ZM144.48999725341798,19.35999850463867L144.30999725341798,8.469998504638673L147.72999725341796,8.469998504638673L147.72999725341796,10.431998504638672L147.83799725341797,10.431998504638672Q148.93599725341795,8.217998504638672,151.83399725341798,8.217998504638672L151.94199725341798,8.217998504638672L151.94199725341798,11.349998504638672L151.76199725341797,11.349998504638672Q149.58399725341798,11.349998504638672,148.65699725341796,12.024998504638672Q147.72999725341796,12.699998504638671,147.72999725341796,14.157998504638673L147.72999725341796,19.35999850463867L144.48999725341798,19.35999850463867Z" fill="#75B1FF" fill-opacity="1"/></g><g><path d="M109.17399615478516,19.61199850463867Q107.55399615478515,19.61199850463867,106.35700615478515,18.918998504638672Q105.15999615478516,18.22599850463867,104.52099615478515,16.938998504638672Q103.88199615478516,15.651998504638673,103.88199615478516,13.90599850463867Q103.88199615478516,12.177998504638673,104.52099615478515,10.890998504638672Q105.15999615478516,9.603998504638671,106.35700615478515,8.910998504638671Q107.55399615478515,8.217998504638672,109.17399615478516,8.217998504638672Q110.79399615478516,8.217998504638672,111.99099615478515,8.910998504638671Q113.18800615478516,9.603998504638671,113.82699615478515,10.890998504638672Q114.46599615478516,12.177998504638673,114.46599615478516,13.90599850463867Q114.46599615478516,15.651998504638673,113.82699615478515,16.938998504638672Q113.18800615478516,18.22599850463867,111.99099615478515,18.918998504638672Q110.79399615478516,19.61199850463867,109.17399615478516,19.61199850463867ZM109.17399615478516,16.55199850463867Q110.09200615478515,16.55199850463867,110.62299615478516,15.840998504638673Q111.15399615478516,15.129998504638671,111.15399615478516,13.90599850463867Q111.15399615478516,12.681998504638672,110.62299615478516,11.979998504638672Q110.09200615478515,11.277998504638672,109.17399615478516,11.277998504638672Q108.25599615478515,11.277998504638672,107.72499615478516,11.979998504638672Q107.19399615478515,12.681998504638672,107.19399615478515,13.90599850463867Q107.19399615478515,15.129998504638671,107.72499615478516,15.840998504638673Q108.25599615478515,16.55199850463867,109.17399615478516,16.55199850463867Z" fill="#B3D4FF" fill-opacity="1"/></g><g><path d="M97.74399951171876,4.779998779296875Q99.48999951171875,4.779998779296875,100.77699951171874,5.391998779296875Q102.06399951171875,6.003998779296875,102.76599951171875,7.146998779296875Q103.46799951171874,8.289998779296875,103.46799951171874,9.837998779296875Q103.46799951171874,11.367998779296876,102.79299951171875,12.510998779296875Q102.11799951171875,13.653998779296876,100.86699951171875,14.265998779296876Q99.61599951171875,14.877998779296876,97.92399951171875,14.877998779296876L95.70999951171875,14.877998779296876L95.70999951171875,19.359998779296873L92.36199951171875,19.359998779296873L92.36199951171875,4.779998779296875L97.74399951171876,4.779998779296875ZM97.23999951171875,11.853998779296875Q98.53599951171876,11.853998779296875,99.29199951171876,11.313998779296874Q100.04799951171876,10.773998779296875,100.04799951171876,9.837998779296875Q100.04799951171876,8.901998779296875,99.29199951171876,8.352998779296875Q98.53599951171876,7.803998779296875,97.23999951171875,7.803998779296875L95.70999951171875,7.803998779296875L95.70999951171875,11.853998779296875L97.23999951171875,11.853998779296875Z" fill="#2A8AF7" fill-opacity="1"/></g><g><path d="M68.16800158691406,23.82799835205078Q66.40000158691406,23.82799835205078,65.14200158691406,23.054498352050782Q63.88400058691406,22.28099835205078,63.374000586914065,20.93799835205078L65.97500158691406,19.866998352050782Q66.28100158691406,20.529998352050782,66.81650158691406,20.90399835205078Q67.35200158691406,21.27799835205078,68.06600158691407,21.27799835205078Q68.93300158691406,21.27799835205078,69.43450158691407,20.733998352050783Q69.93600158691406,20.189998352050782,69.93600158691406,19.288998352050783L69.93600158691406,17.97999835205078L69.83400158691407,17.97999835205078Q69.46000158691406,18.65999835205078,68.80550158691406,19.03399835205078Q68.15100158691406,19.407998352050782,67.40300158691406,19.407998352050782Q66.11100158691406,19.407998352050782,65.14200158691406,18.753498352050784Q64.17300158691407,18.09899835205078,63.65450058691406,16.88349835205078Q63.13600158691406,15.66799835205078,63.13600158691406,14.018998352050781Q63.13600158691406,12.437998352050782,63.637500586914065,11.264998352050782Q64.13900158691406,10.091998352050782,65.06550158691407,9.45449835205078Q65.99200158691406,8.816998352050781,67.23300158691406,8.816998352050781Q68.04900158691406,8.816998352050781,68.72900158691407,9.19099835205078Q69.40900158691406,9.564998352050782,69.83400158691407,10.244998352050782L69.93600158691406,10.244998352050782L69.93600158691406,9.05499835205078L72.99600158691406,9.05499835205078L72.99600158691406,18.79599835205078Q72.99600158691406,20.308998352050782,72.42650158691406,21.44799835205078Q71.85700158691407,22.58699835205078,70.76900158691406,23.20749835205078Q69.68100158691406,23.82799835205078,68.16800158691406,23.82799835205078ZM68.16800158691406,16.55199835205078Q69.01800158691407,16.55199835205078,69.51100158691406,15.897498352050782Q70.00400158691406,15.242998352050781,70.00400158691406,14.120998352050782Q70.00400158691406,12.998998352050782,69.49400158691407,12.335998352050781Q68.98400158691406,11.672998352050781,68.10000158691406,11.672998352050781Q67.26700158691406,11.672998352050781,66.76550158691407,12.335998352050781Q66.26400158691406,12.998998352050782,66.26400158691406,14.120998352050782Q66.26400158691406,15.242998352050781,66.77400158691407,15.897498352050782Q67.28400158691406,16.55199835205078,68.16800158691406,16.55199835205078ZM78.66400158691407,5.517998352050781Q78.66400158691407,6.381998352050781,78.15100158691406,6.894998352050781Q77.63800158691406,7.407998352050781,76.75600158691407,7.407998352050781Q75.89200158691406,7.407998352050781,75.38800158691406,6.894998352050781Q74.88400158691407,6.381998352050781,74.88400158691407,5.517998352050781Q74.88400158691407,4.653998352050781,75.38800158691406,4.140998352050781Q75.89200158691406,3.6279983520507812,76.75600158691407,3.6279983520507812Q77.63800158691406,3.6279983520507812,78.15100158691406,4.140998352050781Q78.66400158691407,4.653998352050781,78.66400158691407,5.517998352050781ZM78.39400158691406,8.46999835205078L78.39400158691406,19.35999835205078L75.15400158691406,19.35999835205078L75.15400158691406,8.46999835205078L78.39400158691406,8.46999835205078ZM80.60800158691407,19.35999835205078L80.60800158691407,8.46999835205078L83.84800158691407,8.46999835205078L83.84800158691407,9.873998352050782L83.93800158691405,9.873998352050782Q84.40600158691406,9.081998352050782,85.16200158691406,8.649998352050781Q85.91800158691406,8.217998352050781,86.92600158691405,8.217998352050781Q88.54600158691406,8.217998352050781,89.42800158691406,9.261998352050782Q90.31000158691407,10.305998352050782,90.31000158691407,12.23199835205078L90.31000158691407,19.35999835205078L87.07000158691406,19.35999835205078L87.07000158691406,12.98799835205078Q87.07000158691406,12.19599835205078,86.68300158691406,11.745998352050782Q86.29600158691406,11.29599835205078,85.61200158691406,11.29599835205078Q84.80200158691406,11.29599835205078,84.32500158691406,11.799998352050782Q83.84800158691407,12.303998352050781,83.84800158691407,13.185998352050781L83.84800158691407,19.35999835205078L80.60800158691407,19.35999835205078Z" fill="#75B1FF" fill-opacity="1"/></g><g><path d="M49.16400115966797,19.35999835205078L48.98400115966797,8.46999835205078L52.40400115966797,8.46999835205078L52.40400115966797,10.431998352050782L52.51200115966797,10.431998352050782Q53.610001159667966,8.217998352050781,56.50800115966797,8.217998352050781L56.61600115966797,8.217998352050781L56.61600115966797,11.349998352050783L56.43600115966797,11.349998352050783Q54.25800115966797,11.349998352050783,53.33100115966797,12.024998352050781Q52.40400115966797,12.69999835205078,52.40400115966797,14.15799835205078L52.40400115966797,19.35999835205078L49.16400115966797,19.35999835205078ZM61.656001159667966,5.517998352050781Q61.656001159667966,6.381998352050781,61.14300115966797,6.894998352050781Q60.63000115966797,7.407998352050781,59.748001159667965,7.407998352050781Q58.88400115966797,7.407998352050781,58.38000115966797,6.894998352050781Q57.876001159667965,6.381998352050781,57.876001159667965,5.517998352050781Q57.876001159667965,4.653998352050781,58.38000115966797,4.140998352050781Q58.88400115966797,3.6279983520507812,59.748001159667965,3.6279983520507812Q60.63000115966797,3.6279983520507812,61.14300115966797,4.140998352050781Q61.656001159667966,4.653998352050781,61.656001159667966,5.517998352050781ZM61.38600115966797,8.46999835205078L61.38600115966797,19.35999835205078L58.14600115966797,19.35999835205078L58.14600115966797,8.46999835205078L61.38600115966797,8.46999835205078Z" fill="#B2D4FF" fill-opacity="1"/></g><g><path d="M40.48800051879883,19.61199892425537Q38.43600051879883,19.61199892425537,36.91500051879883,18.69399892425537Q35.394000518798826,17.77599892425537,34.57500051879883,16.07499892425537Q33.75600051879883,14.373998924255371,33.75600051879883,12.069998924255371Q33.75600051879883,9.76599892425537,34.57500051879883,8.06499892425537Q35.394000518798826,6.363998924255371,36.91500051879883,5.445998924255371Q38.43600051879883,4.527998924255371,40.48800051879883,4.527998924255371Q42.54000051879883,4.527998924255371,44.06100051879883,5.445998924255371Q45.58200051879883,6.363998924255371,46.401000518798824,8.06499892425537Q47.22000051879883,9.76599892425537,47.22000051879883,12.069998924255371Q47.22000051879883,14.373998924255371,46.401000518798824,16.07499892425537Q45.58200051879883,17.77599892425537,44.06100051879883,18.69399892425537Q42.54000051879883,19.61199892425537,40.48800051879883,19.61199892425537ZM40.48800051879883,16.47999892425537Q42.01800051879883,16.47999892425537,42.90900051879883,15.29199892425537Q43.800000518798825,14.103998924255372,43.800000518798825,12.069998924255371Q43.800000518798825,10.03599892425537,42.90900051879883,8.847998924255371Q42.01800051879883,7.659998924255371,40.48800051879883,7.659998924255371Q38.958000518798826,7.659998924255371,38.06700051879883,8.847998924255371Q37.17600051879883,10.03599892425537,37.17600051879883,12.069998924255371Q37.17600051879883,14.103998924255372,38.06700051879883,15.29199892425537Q38.958000518798826,16.47999892425537,40.48800051879883,16.47999892425537Z" fill="#2A8AF7" fill-opacity="1"/></g><g filter="url(#master_svg0_2_0421)"><path d="M23.454559452514648,3.863694990463257Q23.454559452514648,4.044574990463257,23.43704945251465,4.224574990463257Q23.41952945251465,4.404584990463257,23.384679452514646,4.581984990463257Q23.349829452514648,4.759384990463257,23.29796945251465,4.932474990463257Q23.246119452514648,5.1055649904632565,23.177749452514647,5.272664990463257Q23.109389452514648,5.439774990463257,23.02517945251465,5.599294990463257Q22.94096945251465,5.758814990463256,22.84171945251465,5.909204990463257Q22.742469452514648,6.0596049904632565,22.62913945251465,6.199414990463257Q22.51580945251465,6.339234990463257,22.38948945251465,6.467134990463257Q22.26316945251465,6.595034990463257,22.125079452514647,6.709784990463257Q21.98697945251465,6.824534990463257,21.83844945251465,6.925014990463257Q21.689909452514648,7.025504990463257,21.532359452514648,7.1107749904632565Q21.374809452514647,7.196034990463257,21.20976945251465,7.265254990463257Q21.04471945251465,7.3344749904632565,20.873769452514647,7.386984990463257Q20.70281945251465,7.4394849904632565,20.52760945251465,7.474774990463257Q20.352399452514646,7.510064990463257,20.174619452514648,7.527784990463257Q19.99683945251465,7.545514990463257,19.81818945251465,7.545514990463257Q19.63954945251465,7.545514990463257,19.46176945251465,7.527784990463257Q19.28397945251465,7.510064990463257,19.10876945251465,7.474774990463257Q18.933559452514647,7.4394849904632565,18.76260945251465,7.386984990463257Q18.591659452514648,7.3344749904632565,18.42661945251465,7.265254990463257Q18.26156945251465,7.196034990463257,18.10401945251465,7.1107749904632565Q17.94646945251465,7.025504990463257,17.797939452514647,6.925014990463257Q17.649399452514647,6.824534990463257,17.51130945251465,6.709784990463257Q17.373219452514647,6.595034990463257,17.246899452514647,6.467134990463257Q17.120575452514647,6.339234990463257,17.00724545251465,6.199414990463257Q16.893915452514648,6.0596049904632565,16.79466745251465,5.909204990463257Q16.695418452514648,5.758814990463256,16.611206452514647,5.599294990463257Q16.52699445251465,5.439774990463257,16.45863145251465,5.272664990463257Q16.39026745251465,5.1055649904632565,16.338410452514648,4.932474990463257Q16.28655245251465,4.759384990463257,16.25170115251465,4.581984990463257Q16.21684965251465,4.404584990463257,16.199339552514648,4.224574990463257Q16.18182945251465,4.044574990463257,16.18182945251465,3.863694990463257Q16.18182945251465,3.682824990463257,16.199339552514648,3.5028149904632566Q16.21684965251465,3.322804990463257,16.25170115251465,3.145404990463257Q16.28655245251465,2.968004990463257,16.338410452514648,2.7949149904632566Q16.39026745251465,2.621834990463257,16.45863145251465,2.454724990463257Q16.52699445251465,2.287614990463257,16.611206452514647,2.128094990463257Q16.695418452514648,1.9685749904632568,16.79466745251465,1.8181849904632568Q16.893915452514648,1.6677949904632567,17.00724545251465,1.527974990463257Q17.120575452514647,1.3881549904632569,17.246899452514647,1.2602549904632567Q17.373219452514647,1.1323569904632569,17.51130945251465,1.017609990463257Q17.649399452514647,0.9028629904632568,17.797939452514647,0.8023739904632569Q17.94646945251465,0.7018839904632569,18.10401945251465,0.6166199904632568Q18.26156945251465,0.5313549904632568,18.42661945251465,0.46213699046325685Q18.591659452514648,0.39291899046325685,18.76260945251465,0.34041299046325685Q18.933559452514647,0.28790699046325685,19.10876945251465,0.25262019046325684Q19.28397945251465,0.21733299046325683,19.46176945251465,0.19960399046325683Q19.63954945251465,0.18187499046325684,19.81818945251465,0.18187499046325684Q19.99683945251465,0.18187499046325684,20.174619452514648,0.19960399046325683Q20.352399452514646,0.21733299046325683,20.52760945251465,0.25262019046325684Q20.70281945251465,0.28790699046325685,20.873769452514647,0.34041299046325685Q21.04471945251465,0.39291899046325685,21.20976945251465,0.46213699046325685Q21.374809452514647,0.5313549904632568,21.532359452514648,0.6166199904632568Q21.689909452514648,0.7018839904632569,21.83844945251465,0.8023739904632569Q21.98697945251465,0.9028629904632568,22.125079452514647,1.017609990463257Q22.26316945251465,1.1323569904632569,22.38948945251465,1.2602549904632567Q22.51580945251465,1.3881549904632569,22.62913945251465,1.527974990463257Q22.742469452514648,1.6677949904632567,22.84171945251465,1.8181849904632568Q22.94096945251465,1.9685749904632568,23.02517945251465,2.128094990463257Q23.109389452514648,2.287614990463257,23.177749452514647,2.454724990463257Q23.246119452514648,2.621834990463257,23.29797945251465,2.7949249904632567Q23.349829452514648,2.968004990463257,23.384679452514646,3.145404990463257Q23.41952945251465,3.322804990463257,23.43704945251465,3.5028149904632566Q23.454559452514648,3.682824990463257,23.454559452514648,3.863694990463257Z" fill="#75B1FF" fill-opacity="1"/></g><g filter="url(#master_svg1_2_0424)"><path d="M15.878688152923583,12.090951106262207Q15.878688152923583,12.285971106262206,15.859578152923584,12.480041106262206Q15.840458152923585,12.674121106262207,15.802418152923584,12.865401106262208Q15.764368152923584,13.056671106262208,15.707758152923585,13.243291106262207Q15.651148152923584,13.429911106262207,15.576518152923583,13.610081106262207Q15.501888152923584,13.790261106262207,15.409958152923583,13.962251106262208Q15.318018152923585,14.134241106262207,15.209678152923583,14.296391106262206Q15.101328152923584,14.458541106262206,14.977608152923583,14.609301106262208Q14.853888152923584,14.760051106262207,14.715998152923584,14.897951106262207Q14.578098152923584,15.035851106262207,14.427338152923584,15.159561106262206Q14.276588152923583,15.283281106262207,14.114438152923583,15.391631106262206Q13.952288152923584,15.499971106262208,13.780298152923585,15.591911106262206Q13.608308152923584,15.683841106262207,13.428128152923584,15.758471106262206Q13.247958152923584,15.833101106262207,13.061338152923584,15.889711106262208Q12.874718152923585,15.946321106262207,12.683448152923585,15.984371106262207Q12.492168152923584,16.022411106262208,12.298088152923583,16.041531106262205Q12.104018152923583,16.060641106262207,11.908998152923584,16.060641106262207Q11.713978152923584,16.060641106262207,11.519898152923584,16.041531106262205Q11.325818152923585,16.022411106262208,11.134548152923584,15.984371106262207Q10.943278152923584,15.946321106262207,10.756648152923583,15.889711106262208Q10.570028152923584,15.833101106262207,10.389858152923583,15.758471106262206Q10.209688152923583,15.683841106262207,10.037688152923584,15.591911106262206Q9.865698152923583,15.499971106262208,9.703548152923585,15.391631106262206Q9.541398152923584,15.283281106262207,9.390648152923584,15.159561106262206Q9.239898152923583,15.035841106262207,9.101998152923585,14.897951106262207Q8.964098152923583,14.760051106262207,8.840378152923584,14.609291106262207Q8.716659152923583,14.458541106262206,8.608312152923585,14.296391106262206Q8.499966152923584,14.134241106262207,8.408035152923585,13.962251106262208Q8.316104152923584,13.790261106262207,8.241473152923584,13.610081106262207Q8.166843152923583,13.429911106262207,8.110232152923585,13.243291106262207Q8.053621152923585,13.056671106262208,8.015574752923584,12.865401106262208Q7.977528452923584,12.674121106262207,7.958413352923584,12.480041106262206Q7.939298152923584,12.285971106262206,7.939298152923584,12.090951106262207Q7.939298152923584,11.895931106262207,7.958413352923584,11.701851106262207Q7.977528452923584,11.507771106262208,8.015574752923584,11.316501106262207Q8.053621152923585,11.125231106262207,8.110232152923585,10.938601106262206Q8.166843152923583,10.751981106262207,8.241473152923584,10.571811106262206Q8.316104152923584,10.391641106262206,8.408035152923585,10.219641106262207Q8.499966152923584,10.047651106262206,8.608313152923584,9.885501106262208Q8.716659152923583,9.723351106262207,8.840378152923584,9.572601106262207Q8.964098152923583,9.421851106262206,9.101998152923585,9.283951106262208Q9.239898152923583,9.146051106262206,9.390648152923584,9.022331106262207Q9.541398152923584,8.898612106262206,9.703548152923585,8.790265106262208Q9.865698152923583,8.681919106262207,10.037688152923584,8.589988106262208Q10.209688152923583,8.498057106262207,10.389858152923583,8.423426106262207Q10.570028152923584,8.348796106262206,10.756648152923583,8.292185106262208Q10.943278152923584,8.235574106262208,11.134548152923584,8.197527706262207Q11.325818152923585,8.159481406262207,11.519898152923584,8.140366306262207Q11.713978152923584,8.121251106262207,11.908998152923584,8.121251106262207Q12.104018152923583,8.121251106262207,12.298088152923583,8.140366306262207Q12.492168152923584,8.159481406262207,12.683448152923585,8.197527706262207Q12.874718152923585,8.235574106262208,13.061338152923584,8.292185106262208Q13.247958152923584,8.348796106262206,13.428128152923584,8.423426106262207Q13.608308152923584,8.498057106262207,13.780298152923585,8.589988106262208Q13.952288152923584,8.681919106262207,14.114438152923583,8.790266106262207Q14.276588152923583,8.898612106262206,14.427348152923585,9.022331106262207Q14.578098152923584,9.146051106262206,14.715998152923584,9.283951106262208Q14.853898152923584,9.421851106262206,14.977608152923583,9.572601106262207Q15.101328152923584,9.723351106262207,15.209678152923583,9.885501106262208Q15.318018152923585,10.047651106262206,15.409958152923583,10.219641106262207Q15.501888152923584,10.391641106262206,15.576518152923583,10.571811106262206Q15.651148152923584,10.751981106262207,15.707758152923585,10.938601106262206Q15.764368152923584,11.125231106262207,15.802418152923584,11.316501106262207Q15.840458152923585,11.507771106262208,15.859578152923584,11.701851106262207Q15.878688152923583,11.895931106262207,15.878688152923583,12.090951106262207Z" fill="#B2D4FF" fill-opacity="1"/></g><g filter="url(#master_svg2_2_0427)"><path d="M23.7562,14.4166C23.9187,13.6224,24,12.8168,24,12C24,11.9702,23.9993,11.9405,23.9978,11.9108C23.9964,11.8811,23.9942,11.8514,23.9913,11.8218C23.9884,11.7922,23.9847,11.7626,23.9804,11.7332C23.976,11.7038,23.9709,11.6745,23.9651,11.6453C23.9593,11.6161,23.9527,11.5871,23.9455,11.5582C23.9383,11.5294,23.9304,11.5007,23.9216,11.4722C23.913,11.4437,23.9037,11.4155,23.8936,11.3875C23.8837,11.3595,23.873,11.3317,23.8616,11.3042C23.8502,11.2767,23.8382,11.2495,23.8255,11.2226C23.8127,11.1957,23.7993,11.1692,23.7853,11.1429C23.7712,11.1167,23.7565,11.0908,23.7413,11.0653C23.726,11.0398,23.7101,11.0146,23.6936,10.9899C23.677,10.9651,23.6599,10.9408,23.6422,10.9169C23.6245,10.893,23.6062,10.8696,23.5873,10.8466C23.5684,10.8236,23.5489,10.801,23.5289,10.779C23.509,10.757,23.4885,10.7354,23.4675,10.7144C23.4464,10.6933,23.4248,10.6728,23.4029,10.6528C23.3808,10.6328,23.3583,10.6134,23.3353,10.5945C23.3122,10.5757,23.2888,10.5574,23.2649,10.5396C23.241,10.5219,23.2167,10.5048,23.192,10.4883C23.1673,10.4717,23.1421,10.4558,23.1165,10.4405C23.091,10.4252,23.0651,10.4106,23.0389,10.3965C23.0126,10.3825,22.986,10.3691,22.9591,10.3564C22.9323,10.3437,22.9051,10.3316,22.8776,10.3202C22.8501,10.3089,22.8224,10.2982,22.7944,10.2881C22.7664,10.2781,22.7381,10.2688,22.7096,10.2601C22.6812,10.2515,22.6525,10.2436,22.6236,10.2363C22.5948,10.2291,22.5658,10.2226,22.5365,10.2168C22.5073,10.211,22.478,10.2059,22.4485,10.2015C22.4191,10.1971,22.3896,10.1935,22.36,10.1906C22.3304,10.1877,22.3008,10.1855,22.2711,10.184C22.2413,10.1826,22.2115,10.1818,22.1818,10.1818C22.1521,10.1818,22.1224,10.1826,22.0925,10.184C22.0628,10.1855,22.0332,10.1877,22.0036,10.1906C21.9741,10.1935,21.9445,10.1971,21.9151,10.2015C21.8856,10.2059,21.8563,10.211,21.8271,10.2168C21.7979,10.2226,21.7688,10.2291,21.74,10.2363C21.7112,10.2436,21.6825,10.2515,21.654,10.2601C21.6255,10.2688,21.5973,10.2781,21.5693,10.2881C21.5413,10.2981,21.5135,10.3089,21.486,10.3202C21.4585,10.3316,21.4313,10.3437,21.4044,10.3564C21.3776,10.3691,21.351,10.3825,21.3247,10.3965C21.2985,10.4106,21.2727,10.4252,21.2471,10.4405C21.2215,10.4558,21.1964,10.4717,21.1716,10.4883C21.1469,10.5048,21.1226,10.5219,21.0987,10.5396C21.0748,10.5574,21.0514,10.5757,21.0284,10.5945C21.0053,10.6134,20.9828,10.6328,20.9607,10.6528C20.9388,10.6728,20.9173,10.6933,20.8962,10.7144C20.8751,10.7354,20.8546,10.757,20.8347,10.779C20.8147,10.801,20.7953,10.8236,20.7764,10.8466C20.7575,10.8696,20.7392,10.893,20.7215,10.9169C20.7038,10.9408,20.6866,10.9651,20.67,10.9899C20.6535,11.0146,20.6376,11.0398,20.6224,11.0653C20.6071,11.0908,20.5924,11.1167,20.5784,11.1429C20.5643,11.1692,20.5509,11.1957,20.5382,11.2226C20.5255,11.2495,20.5134,11.2767,20.502,11.3042C20.4906,11.3317,20.4799,11.3595,20.47,11.3875C20.4599,11.4155,20.4506,11.4437,20.442,11.4722C20.4333,11.5007,20.4253,11.5294,20.4182,11.5582C20.4109,11.5871,20.4044,11.6161,20.3985,11.6453C20.3927,11.6745,20.3876,11.7038,20.3833,11.7332C20.3789,11.7626,20.3753,11.7922,20.3724,11.8218C20.3695,11.8514,20.3673,11.8811,20.3658,11.9108C20.3644,11.9405,20.3636,11.9702,20.3636,12C20.3636,12.5714,20.307,13.1339,20.1936,13.6876C20.0835,14.2263,19.9213,14.7488,19.7072,15.2551C19.4968,15.7527,19.2398,16.226,18.9364,16.6751C18.6356,17.1204,18.2948,17.5334,17.9141,17.9141C17.5334,18.2948,17.1204,18.6356,16.6751,18.9364C16.226,19.2398,15.7527,19.4967,15.2551,19.7072C14.7488,19.9213,14.2263,20.0835,13.6876,20.1936C13.1339,20.307,12.5714,20.3636,12,20.3636C11.4286,20.3636,10.8661,20.307,10.3124,20.1936C9.77367,20.0835,9.25117,19.9213,8.74485,19.7072C8.24734,19.4968,7.77402,19.2398,7.32489,18.9364C6.87957,18.6356,6.46656,18.2948,6.08587,17.9141C5.70519,17.5334,5.36443,17.1204,5.06358,16.6751C4.76018,16.226,4.50326,15.7527,4.29284,15.2551C4.0787,14.7488,3.91653,14.2263,3.80631,13.6876C3.69301,13.1339,3.63636,12.5714,3.63636,12C3.63636,11.4286,3.69301,10.8661,3.80631,10.3124C3.91653,9.77366,4.0787,9.25116,4.29284,8.74485C4.50326,8.24734,4.76018,7.77402,5.06358,7.32489C5.36443,6.87956,5.70519,6.46655,6.08587,6.08587C6.46655,5.70519,6.87956,5.36443,7.32489,5.06358C7.77402,4.76018,8.24734,4.50326,8.74485,4.29284C9.25117,4.0787,9.77367,3.91653,10.3124,3.80631C10.8661,3.69301,11.4286,3.63636,12,3.63636L12,3.63635C12.0298,3.63635,12.0595,3.63561,12.0892,3.63415C12.1189,3.63269,12.1486,3.63051,12.1782,3.62759C12.2078,3.62467,12.2374,3.62103,12.2668,3.61667C12.2962,3.6123,12.3255,3.60721,12.3547,3.60141C12.3839,3.5956,12.4129,3.58909,12.4418,3.58186C12.4706,3.57463,12.4993,3.56669,12.5278,3.55806C12.5563,3.54942,12.5845,3.54009,12.6125,3.53006C12.6405,3.52004,12.6683,3.50933,12.6958,3.49795C12.7233,3.48656,12.7505,3.4745,12.7774,3.46178C12.8043,3.44906,12.8308,3.43568,12.8571,3.42166C12.8833,3.40763,12.9092,3.39297,12.9347,3.37767C12.9602,3.36238,12.9854,3.34646,13.0101,3.32993C13.0348,3.3134,13.0592,3.29627,13.0831,3.27854C13.107,3.26082,13.1304,3.24252,13.1534,3.22364C13.1764,3.20476,13.199,3.18533,13.221,3.16535C13.243,3.14537,13.2646,3.12486,13.2856,3.10382C13.3067,3.08278,13.3272,3.06123,13.3472,3.03919C13.3672,3.01714,13.3866,2.99461,13.4055,2.97161C13.4243,2.94861,13.4426,2.92516,13.4604,2.90126C13.4781,2.87736,13.4952,2.85304,13.5117,2.8283C13.5283,2.80356,13.5442,2.77843,13.5595,2.75291C13.5748,2.72738,13.5894,2.7015,13.6035,2.67526C13.6175,2.64902,13.6309,2.62245,13.6436,2.59555C13.6563,2.56865,13.6684,2.54145,13.6798,2.51396C13.6911,2.48647,13.7018,2.45872,13.7119,2.4307C13.7219,2.40269,13.7312,2.37444,13.7399,2.34597C13.7485,2.31749,13.7564,2.28882,13.7637,2.25996C13.7709,2.2311,13.7774,2.20207,13.7832,2.17289C13.789,2.1437,13.7941,2.1144,13.7985,2.08496C13.8029,2.05553,13.8065,2.026,13.8094,1.99639C13.8123,1.96678,13.8145,1.93711,13.816,1.90739C13.8174,1.87768,13.8182,1.84794,13.8182,1.81818C13.8182,1.78843,13.8174,1.75869,13.816,1.72897C13.8145,1.69925,13.8123,1.66958,13.8094,1.63997C13.8065,1.61036,13.8029,1.58084,13.7985,1.5514C13.7941,1.52197,13.789,1.49266,13.7832,1.46348C13.7774,1.43429,13.7709,1.40527,13.7637,1.3764C13.7564,1.34754,13.7485,1.31887,13.7399,1.2904C13.7312,1.26192,13.7219,1.23368,13.7119,1.20566C13.7018,1.17764,13.6911,1.14989,13.6798,1.1224C13.6684,1.09491,13.6563,1.06772,13.6436,1.04082C13.6309,1.01392,13.6175,0.987348,13.6035,0.961105C13.5894,0.934863,13.5748,0.908981,13.5595,0.883458C13.5442,0.857937,13.5283,0.832805,13.5117,0.808064C13.4952,0.783323,13.4781,0.759003,13.4604,0.735104C13.4426,0.711203,13.4243,0.687752,13.4055,0.664751C13.3866,0.64175,13.3672,0.619225,13.3472,0.597178C13.3272,0.575131,13.3067,0.553587,13.2856,0.532545C13.2646,0.511505,13.243,0.490994,13.221,0.471011C13.199,0.451029,13.1764,0.431599,13.1534,0.412722C13.1304,0.393845,13.107,0.375545,13.0831,0.35782C13.0592,0.340094,13.0348,0.322965,13.0101,0.306435C12.9854,0.289902,12.9602,0.273988,12.9347,0.258691C12.9092,0.243394,12.8833,0.228732,12.8571,0.214705C12.8308,0.200679,12.8043,0.187304,12.7774,0.174582C12.7505,0.161859,12.7233,0.149805,12.6958,0.138418C12.6683,0.127032,12.6405,0.116325,12.6125,0.1063C12.5845,0.0962758,12.5563,0.0869448,12.5278,0.0783073C12.4993,0.0696697,12.4706,0.0617364,12.4418,0.0545073C12.4129,0.047277,12.3839,0.0407594,12.3547,0.0349545C12.3255,0.0291485,12.2962,0.0240624,12.2668,0.0196964C12.2374,0.0153303,12.2078,0.0116891,12.1782,0.00877273C12.1486,0.00585636,12.1189,0.00366848,12.0892,0.00220909C12.0595,0.000748485,12.0298,0.0000181818,12,0.0000181818L12,0C11.1832,0,10.3776,0.0812485,9.58344,0.243745C8.80848,0.402308,8.05679,0.635624,7.32838,0.943695C6.61359,1.24601,5.93389,1.6149,5.28927,2.05037C4.65126,2.48139,4.0597,2.96946,3.51458,3.51458C2.96946,4.0597,2.4814,4.65126,2.05037,5.28927C1.6149,5.93389,1.24601,6.61359,0.943695,7.32838C0.635624,8.05679,0.402308,8.80848,0.243747,9.58344C0.0812491,10.3776,0,11.1832,0,12C0,12.8168,0.0812485,13.6224,0.243745,14.4166C0.402308,15.1915,0.635624,15.9432,0.943695,16.6716C1.24601,17.3864,1.6149,18.0661,2.05037,18.7107C2.4814,19.3487,2.96946,19.9403,3.51458,20.4855C4.0597,21.0305,4.65126,21.5186,5.28927,21.9496C5.93389,22.3852,6.61359,22.7541,7.32838,23.0564C8.05679,23.3644,8.80848,23.5976,9.58344,23.7562C10.3776,23.9187,11.1832,24,12,24C12.8168,24,13.6224,23.9187,14.4166,23.7562C15.1915,23.5976,15.9432,23.3644,16.6716,23.0564C17.3864,22.7541,18.0661,22.3852,18.7107,21.9496C19.3487,21.5186,19.9403,21.0305,20.4855,20.4855C21.0305,19.9403,21.5186,19.3487,21.9496,18.7107C22.3852,18.0661,22.7541,17.3864,23.0564,16.6716C23.3644,15.9432,23.5976,15.1915,23.7562,14.4166Z" fill-rule="evenodd" fill="#B3D4FF" fill-opacity="1"/></g></g></svg>