<svg xmlns="http://www.w3.org/2000/svg" xmlns:xlink="http://www.w3.org/1999/xlink" fill="none" version="1.1" width="24" height="24" viewBox="0 0 24 24"><defs><filter id="master_svg0_3_09" filterUnits="objectBoundingBox" color-interpolation-filters="sRGB" x="0" y="0" width="1" height="1"><feFlood flood-opacity="0" result="BackgroundImageFix"/><feBlend mode="normal" in="SourceGraphic" in2="BackgroundImageFix" result="shape"/><feGaussianBlur stdDeviation="0" result="effect1_foregroundBlur"/></filter><filter id="master_svg1_3_10" filterUnits="objectBoundingBox" color-interpolation-filters="sRGB" x="0" y="0" width="1" height="1"><feFlood flood-opacity="0" result="BackgroundImageFix"/><feBlend mode="normal" in="SourceGraphic" in2="BackgroundImageFix" result="shape"/><feGaussianBlur stdDeviation="0" result="effect1_foregroundBlur"/></filter><filter id="master_svg2_3_11" filterUnits="objectBoundingBox" color-interpolation-filters="sRGB" x="0" y="0" width="1" height="1"><feFlood flood-opacity="0" result="BackgroundImageFix"/><feBlend mode="normal" in="SourceGraphic" in2="BackgroundImageFix" result="shape"/><feGaussianBlur stdDeviation="0" result="effect1_foregroundBlur"/></filter></defs><g><g filter="url(#master_svg0_3_09)"><path d="M23.454559452514648,3.8636895068359376Q23.454559452514648,4.044569506835938,23.43704945251465,4.2245695068359375Q23.41952945251465,4.404579506835938,23.384679452514646,4.581979506835937Q23.349829452514648,4.759379506835938,23.29796945251465,4.932469506835938Q23.246119452514648,5.105559506835937,23.177749452514647,5.272659506835938Q23.109389452514648,5.439769506835938,23.02517945251465,5.599289506835937Q22.94096945251465,5.758809506835937,22.84171945251465,5.909199506835938Q22.742469452514648,6.059599506835937,22.62913945251465,6.199409506835938Q22.51580945251465,6.339229506835937,22.38948945251465,6.467129506835938Q22.26316945251465,6.595029506835938,22.125079452514647,6.709779506835938Q21.98697945251465,6.824529506835938,21.83844945251465,6.925009506835938Q21.689909452514648,7.025499506835938,21.532359452514648,7.110769506835937Q21.374809452514647,7.196029506835938,21.20976945251465,7.2652495068359375Q21.04471945251465,7.334469506835937,20.873769452514647,7.386979506835938Q20.70281945251465,7.439479506835937,20.52760945251465,7.474769506835938Q20.352399452514646,7.510059506835938,20.174619452514648,7.527779506835937Q19.99683945251465,7.545509506835938,19.81818945251465,7.545509506835938Q19.63954945251465,7.545509506835938,19.46176945251465,7.527779506835937Q19.28397945251465,7.510059506835938,19.10876945251465,7.474769506835938Q18.933559452514647,7.439479506835937,18.76260945251465,7.386979506835938Q18.591659452514648,7.334469506835937,18.42661945251465,7.2652495068359375Q18.26156945251465,7.196029506835938,18.10401945251465,7.110769506835937Q17.94646945251465,7.025499506835938,17.797939452514647,6.925009506835938Q17.649399452514647,6.824529506835938,17.51130945251465,6.709779506835938Q17.373219452514647,6.595029506835938,17.246899452514647,6.467129506835938Q17.120575452514647,6.339229506835937,17.00724545251465,6.199409506835938Q16.893915452514648,6.059599506835937,16.79466745251465,5.909199506835938Q16.695418452514648,5.758809506835937,16.611206452514647,5.599289506835937Q16.52699445251465,5.439769506835938,16.45863145251465,5.272659506835938Q16.39026745251465,5.105559506835937,16.338410452514648,4.932469506835938Q16.28655245251465,4.759379506835938,16.25170115251465,4.581979506835937Q16.21684965251465,4.404579506835938,16.199339552514648,4.2245695068359375Q16.18182945251465,4.044569506835938,16.18182945251465,3.8636895068359376Q16.18182945251465,3.6828195068359375,16.199339552514648,3.5028095068359373Q16.21684965251465,3.3227995068359375,16.25170115251465,3.1453995068359375Q16.28655245251465,2.9679995068359375,16.338410452514648,2.7949095068359373Q16.39026745251465,2.6218295068359376,16.45863145251465,2.4547195068359375Q16.52699445251465,2.2876095068359374,16.611206452514647,2.128089506835938Q16.695418452514648,1.9685695068359375,16.79466745251465,1.8181795068359374Q16.893915452514648,1.6677895068359374,17.00724545251465,1.5279695068359376Q17.120575452514647,1.3881495068359375,17.246899452514647,1.2602495068359374Q17.373219452514647,1.1323515068359375,17.51130945251465,1.0176045068359376Q17.649399452514647,0.9028575068359375,17.797939452514647,0.8023685068359375Q17.94646945251465,0.7018785068359376,18.10401945251465,0.6166145068359374Q18.26156945251465,0.5313495068359375,18.42661945251465,0.4621315068359375Q18.591659452514648,0.3929135068359375,18.76260945251465,0.3404075068359375Q18.933559452514647,0.2879015068359375,19.10876945251465,0.2526147068359375Q19.28397945251465,0.2173275068359375,19.46176945251465,0.1995985068359375Q19.63954945251465,0.1818695068359375,19.81818945251465,0.1818695068359375Q19.99683945251465,0.1818695068359375,20.174619452514648,0.1995985068359375Q20.352399452514646,0.2173275068359375,20.52760945251465,0.2526147068359375Q20.70281945251465,0.2879015068359375,20.873769452514647,0.3404075068359375Q21.04471945251465,0.3929135068359375,21.20976945251465,0.4621315068359375Q21.374809452514647,0.5313495068359375,21.532359452514648,0.6166145068359374Q21.689909452514648,0.7018785068359376,21.83844945251465,0.8023685068359375Q21.98697945251465,0.9028575068359375,22.125079452514647,1.0176045068359376Q22.26316945251465,1.1323515068359375,22.38948945251465,1.2602495068359374Q22.51580945251465,1.3881495068359375,22.62913945251465,1.5279695068359376Q22.742469452514648,1.6677895068359374,22.84171945251465,1.8181795068359374Q22.94096945251465,1.9685695068359375,23.02517945251465,2.128089506835938Q23.109389452514648,2.2876095068359374,23.177749452514647,2.4547195068359375Q23.246119452514648,2.6218295068359376,23.29797945251465,2.7949195068359374Q23.349829452514648,2.9679995068359375,23.384679452514646,3.1453995068359375Q23.41952945251465,3.3227995068359375,23.43704945251465,3.5028095068359373Q23.454559452514648,3.6828195068359375,23.454559452514648,3.8636895068359376Z" fill="#75B1FF" fill-opacity="1"/></g><g filter="url(#master_svg1_3_10)"><path d="M15.878688629760742,12.09095015258789Q15.878688629760742,12.28597015258789,15.859578629760742,12.48004015258789Q15.840458629760743,12.674120152587891,15.802418629760743,12.865400152587892Q15.764368629760742,13.056670152587891,15.707758629760743,13.24329015258789Q15.651148629760742,13.42991015258789,15.576518629760741,13.61008015258789Q15.501888629760742,13.79026015258789,15.409958629760741,13.962250152587892Q15.318018629760743,14.134240152587891,15.209678629760742,14.29639015258789Q15.101328629760742,14.45854015258789,14.977608629760741,14.609300152587892Q14.853888629760743,14.76005015258789,14.715998629760742,14.89795015258789Q14.578098629760742,15.03585015258789,14.427338629760742,15.15956015258789Q14.276588629760742,15.28328015258789,14.114438629760741,15.39163015258789Q13.952288629760742,15.499970152587892,13.780298629760743,15.59191015258789Q13.608308629760742,15.68384015258789,13.428128629760742,15.75847015258789Q13.247958629760742,15.83310015258789,13.061338629760742,15.889710152587892Q12.874718629760743,15.94632015258789,12.683448629760743,15.984370152587891Q12.492168629760743,16.02241015258789,12.298088629760741,16.04153015258789Q12.104018629760741,16.06064015258789,11.908998629760742,16.06064015258789Q11.713978629760742,16.06064015258789,11.519898629760743,16.04153015258789Q11.325818629760743,16.02241015258789,11.134548629760742,15.984370152587891Q10.943278629760743,15.94632015258789,10.756648629760742,15.889710152587892Q10.570028629760742,15.83310015258789,10.389858629760742,15.75847015258789Q10.209688629760741,15.68384015258789,10.037688629760742,15.59191015258789Q9.865698629760741,15.499970152587892,9.703548629760743,15.39163015258789Q9.541398629760742,15.28328015258789,9.390648629760742,15.15956015258789Q9.239898629760741,15.035840152587891,9.101998629760743,14.89795015258789Q8.964098629760741,14.76005015258789,8.840378629760743,14.60929015258789Q8.716659629760741,14.45854015258789,8.608312629760743,14.29639015258789Q8.499966629760742,14.134240152587891,8.408035629760743,13.962250152587892Q8.316104629760742,13.79026015258789,8.241473629760742,13.61008015258789Q8.166843629760741,13.42991015258789,8.110232629760743,13.24329015258789Q8.053621629760743,13.056670152587891,8.015575229760742,12.865400152587892Q7.977528929760743,12.674120152587891,7.958413829760742,12.48004015258789Q7.939298629760742,12.28597015258789,7.939298629760742,12.09095015258789Q7.939298629760742,11.89593015258789,7.958413829760742,11.701850152587891Q7.977528929760743,11.507770152587891,8.015575229760742,11.31650015258789Q8.053621629760743,11.125230152587891,8.110232629760743,10.93860015258789Q8.166843629760741,10.75198015258789,8.241473629760742,10.57181015258789Q8.316104629760742,10.39164015258789,8.408035629760743,10.21964015258789Q8.499966629760742,10.04765015258789,8.608313629760742,9.885500152587891Q8.716659629760741,9.72335015258789,8.840378629760743,9.57260015258789Q8.964098629760741,9.42185015258789,9.101998629760743,9.283950152587892Q9.239898629760741,9.14605015258789,9.390648629760742,9.022330152587891Q9.541398629760742,8.89861115258789,9.703548629760743,8.790264152587891Q9.865698629760741,8.68191815258789,10.037688629760742,8.589987152587891Q10.209688629760741,8.49805615258789,10.389858629760742,8.42342515258789Q10.570028629760742,8.34879515258789,10.756648629760742,8.292184152587891Q10.943278629760743,8.235573152587891,11.134548629760742,8.19752675258789Q11.325818629760743,8.159480452587891,11.519898629760743,8.14036535258789Q11.713978629760742,8.12125015258789,11.908998629760742,8.12125015258789Q12.104018629760741,8.12125015258789,12.298088629760741,8.14036535258789Q12.492168629760743,8.159480452587891,12.683448629760743,8.19752675258789Q12.874718629760743,8.235573152587891,13.061338629760742,8.292184152587891Q13.247958629760742,8.34879515258789,13.428128629760742,8.42342515258789Q13.608308629760742,8.49805615258789,13.780298629760743,8.589987152587891Q13.952288629760742,8.68191815258789,14.114438629760741,8.79026515258789Q14.276588629760742,8.89861115258789,14.427348629760743,9.022330152587891Q14.578098629760742,9.14605015258789,14.715998629760742,9.283950152587892Q14.853898629760742,9.42185015258789,14.977608629760741,9.57260015258789Q15.101328629760742,9.72335015258789,15.209678629760742,9.885500152587891Q15.318018629760743,10.04765015258789,15.409958629760741,10.21964015258789Q15.501888629760742,10.39164015258789,15.576518629760741,10.57181015258789Q15.651148629760742,10.75198015258789,15.707758629760743,10.93860015258789Q15.764368629760742,11.125230152587891,15.802418629760743,11.31650015258789Q15.840458629760743,11.507770152587891,15.859578629760742,11.701850152587891Q15.878688629760742,11.89593015258789,15.878688629760742,12.09095015258789Z" fill="#B2D4FF" fill-opacity="1"/></g><g filter="url(#master_svg2_3_11)"><path d="M23.7562,14.4166C23.9187,13.6224,24,12.8168,24,12C24,11.9702,23.9993,11.9405,23.9978,11.9108C23.9964,11.8811,23.9942,11.8514,23.9913,11.8218C23.9884,11.7922,23.9847,11.7626,23.9804,11.7332C23.976,11.7038,23.9709,11.6745,23.9651,11.6453C23.9593,11.6161,23.9527,11.5871,23.9455,11.5582C23.9383,11.5294,23.9304,11.5007,23.9216,11.4722C23.913,11.4437,23.9037,11.4155,23.8936,11.3875C23.8837,11.3595,23.873,11.3317,23.8616,11.3042C23.8502,11.2767,23.8382,11.2495,23.8255,11.2226C23.8127,11.1957,23.7993,11.1692,23.7853,11.1429C23.7712,11.1167,23.7565,11.0908,23.7413,11.0653C23.726,11.0398,23.7101,11.0146,23.6936,10.9899C23.677,10.9651,23.6599,10.9408,23.6422,10.9169C23.6245,10.893,23.6062,10.8696,23.5873,10.8466C23.5684,10.8236,23.5489,10.801,23.5289,10.779C23.509,10.757,23.4885,10.7354,23.4675,10.7144C23.4464,10.6933,23.4248,10.6728,23.4029,10.6528C23.3808,10.6328,23.3583,10.6134,23.3353,10.5945C23.3122,10.5757,23.2888,10.5574,23.2649,10.5396C23.241,10.5219,23.2167,10.5048,23.192,10.4883C23.1673,10.4717,23.1421,10.4558,23.1165,10.4405C23.091,10.4252,23.0651,10.4106,23.0389,10.3965C23.0126,10.3825,22.986,10.3691,22.9591,10.3564C22.9323,10.3437,22.9051,10.3316,22.8776,10.3202C22.8501,10.3089,22.8224,10.2982,22.7944,10.2881C22.7664,10.2781,22.7381,10.2688,22.7096,10.2601C22.6812,10.2515,22.6525,10.2436,22.6236,10.2363C22.5948,10.2291,22.5658,10.2226,22.5365,10.2168C22.5073,10.211,22.478,10.2059,22.4485,10.2015C22.4191,10.1971,22.3896,10.1935,22.36,10.1906C22.3304,10.1877,22.3008,10.1855,22.2711,10.184C22.2413,10.1826,22.2115,10.1818,22.1818,10.1818C22.1521,10.1818,22.1224,10.1826,22.0925,10.184C22.0628,10.1855,22.0332,10.1877,22.0036,10.1906C21.9741,10.1935,21.9445,10.1971,21.9151,10.2015C21.8856,10.2059,21.8563,10.211,21.8271,10.2168C21.7979,10.2226,21.7688,10.2291,21.74,10.2363C21.7112,10.2436,21.6825,10.2515,21.654,10.2601C21.6255,10.2688,21.5973,10.2781,21.5693,10.2881C21.5413,10.2981,21.5135,10.3089,21.486,10.3202C21.4585,10.3316,21.4313,10.3437,21.4044,10.3564C21.3776,10.3691,21.351,10.3825,21.3247,10.3965C21.2985,10.4106,21.2727,10.4252,21.2471,10.4405C21.2215,10.4558,21.1964,10.4717,21.1716,10.4883C21.1469,10.5048,21.1226,10.5219,21.0987,10.5396C21.0748,10.5574,21.0514,10.5757,21.0284,10.5945C21.0053,10.6134,20.9828,10.6328,20.9607,10.6528C20.9388,10.6728,20.9173,10.6933,20.8962,10.7144C20.8751,10.7354,20.8546,10.757,20.8347,10.779C20.8147,10.801,20.7953,10.8236,20.7764,10.8466C20.7575,10.8696,20.7392,10.893,20.7215,10.9169C20.7038,10.9408,20.6866,10.9651,20.67,10.9899C20.6535,11.0146,20.6376,11.0398,20.6224,11.0653C20.6071,11.0908,20.5924,11.1167,20.5784,11.1429C20.5643,11.1692,20.5509,11.1957,20.5382,11.2226C20.5255,11.2495,20.5134,11.2767,20.502,11.3042C20.4906,11.3317,20.4799,11.3595,20.47,11.3875C20.4599,11.4155,20.4506,11.4437,20.442,11.4722C20.4333,11.5007,20.4253,11.5294,20.4182,11.5582C20.4109,11.5871,20.4044,11.6161,20.3985,11.6453C20.3927,11.6745,20.3876,11.7038,20.3833,11.7332C20.3789,11.7626,20.3753,11.7922,20.3724,11.8218C20.3695,11.8514,20.3673,11.8811,20.3658,11.9108C20.3644,11.9405,20.3636,11.9702,20.3636,12C20.3636,12.5714,20.307,13.1339,20.1936,13.6876C20.0835,14.2263,19.9213,14.7488,19.7072,15.2551C19.4968,15.7527,19.2398,16.226,18.9364,16.6751C18.6356,17.1204,18.2948,17.5334,17.9141,17.9141C17.5334,18.2948,17.1204,18.6356,16.6751,18.9364C16.226,19.2398,15.7527,19.4967,15.2551,19.7072C14.7488,19.9213,14.2263,20.0835,13.6876,20.1936C13.1339,20.307,12.5714,20.3636,12,20.3636C11.4286,20.3636,10.8661,20.307,10.3124,20.1936C9.77367,20.0835,9.25117,19.9213,8.74485,19.7072C8.24734,19.4968,7.77402,19.2398,7.32489,18.9364C6.87957,18.6356,6.46656,18.2948,6.08587,17.9141C5.70519,17.5334,5.36443,17.1204,5.06358,16.6751C4.76018,16.226,4.50326,15.7527,4.29284,15.2551C4.0787,14.7488,3.91653,14.2263,3.80631,13.6876C3.69301,13.1339,3.63636,12.5714,3.63636,12C3.63636,11.4286,3.69301,10.8661,3.80631,10.3124C3.91653,9.77366,4.0787,9.25116,4.29284,8.74485C4.50326,8.24734,4.76018,7.77402,5.06358,7.32489C5.36443,6.87956,5.70519,6.46655,6.08587,6.08587C6.46655,5.70519,6.87956,5.36443,7.32489,5.06358C7.77402,4.76018,8.24734,4.50326,8.74485,4.29284C9.25117,4.0787,9.77367,3.91653,10.3124,3.80631C10.8661,3.69301,11.4286,3.63636,12,3.63636L12,3.63635C12.0298,3.63635,12.0595,3.63561,12.0892,3.63415C12.1189,3.63269,12.1486,3.63051,12.1782,3.62759C12.2078,3.62467,12.2374,3.62103,12.2668,3.61667C12.2962,3.6123,12.3255,3.60721,12.3547,3.60141C12.3839,3.5956,12.4129,3.58909,12.4418,3.58186C12.4706,3.57463,12.4993,3.56669,12.5278,3.55806C12.5563,3.54942,12.5845,3.54009,12.6125,3.53006C12.6405,3.52004,12.6683,3.50933,12.6958,3.49795C12.7233,3.48656,12.7505,3.4745,12.7774,3.46178C12.8043,3.44906,12.8308,3.43568,12.8571,3.42166C12.8833,3.40763,12.9092,3.39297,12.9347,3.37767C12.9602,3.36238,12.9854,3.34646,13.0101,3.32993C13.0348,3.3134,13.0592,3.29627,13.0831,3.27854C13.107,3.26082,13.1304,3.24252,13.1534,3.22364C13.1764,3.20476,13.199,3.18533,13.221,3.16535C13.243,3.14537,13.2646,3.12486,13.2856,3.10382C13.3067,3.08278,13.3272,3.06123,13.3472,3.03919C13.3672,3.01714,13.3866,2.99461,13.4055,2.97161C13.4243,2.94861,13.4426,2.92516,13.4604,2.90126C13.4781,2.87736,13.4952,2.85304,13.5117,2.8283C13.5283,2.80356,13.5442,2.77843,13.5595,2.75291C13.5748,2.72738,13.5894,2.7015,13.6035,2.67526C13.6175,2.64902,13.6309,2.62245,13.6436,2.59555C13.6563,2.56865,13.6684,2.54145,13.6798,2.51396C13.6911,2.48647,13.7018,2.45872,13.7119,2.4307C13.7219,2.40269,13.7312,2.37444,13.7399,2.34597C13.7485,2.31749,13.7564,2.28882,13.7637,2.25996C13.7709,2.2311,13.7774,2.20207,13.7832,2.17289C13.789,2.1437,13.7941,2.1144,13.7985,2.08496C13.8029,2.05553,13.8065,2.026,13.8094,1.99639C13.8123,1.96678,13.8145,1.93711,13.816,1.90739C13.8174,1.87768,13.8182,1.84794,13.8182,1.81818C13.8182,1.78843,13.8174,1.75869,13.816,1.72897C13.8145,1.69925,13.8123,1.66958,13.8094,1.63997C13.8065,1.61036,13.8029,1.58084,13.7985,1.5514C13.7941,1.52197,13.789,1.49266,13.7832,1.46348C13.7774,1.43429,13.7709,1.40527,13.7637,1.3764C13.7564,1.34754,13.7485,1.31887,13.7399,1.2904C13.7312,1.26192,13.7219,1.23368,13.7119,1.20566C13.7018,1.17764,13.6911,1.14989,13.6798,1.1224C13.6684,1.09491,13.6563,1.06772,13.6436,1.04082C13.6309,1.01392,13.6175,0.987348,13.6035,0.961105C13.5894,0.934863,13.5748,0.908981,13.5595,0.883458C13.5442,0.857937,13.5283,0.832805,13.5117,0.808064C13.4952,0.783323,13.4781,0.759003,13.4604,0.735104C13.4426,0.711203,13.4243,0.687752,13.4055,0.664751C13.3866,0.64175,13.3672,0.619225,13.3472,0.597178C13.3272,0.575131,13.3067,0.553587,13.2856,0.532545C13.2646,0.511505,13.243,0.490994,13.221,0.471011C13.199,0.451029,13.1764,0.431599,13.1534,0.412722C13.1304,0.393845,13.107,0.375545,13.0831,0.35782C13.0592,0.340094,13.0348,0.322965,13.0101,0.306435C12.9854,0.289902,12.9602,0.273988,12.9347,0.258691C12.9092,0.243394,12.8833,0.228732,12.8571,0.214705C12.8308,0.200679,12.8043,0.187304,12.7774,0.174582C12.7505,0.161859,12.7233,0.149805,12.6958,0.138418C12.6683,0.127032,12.6405,0.116325,12.6125,0.1063C12.5845,0.0962758,12.5563,0.0869448,12.5278,0.0783073C12.4993,0.0696697,12.4706,0.0617364,12.4418,0.0545073C12.4129,0.047277,12.3839,0.0407594,12.3547,0.0349545C12.3255,0.0291485,12.2962,0.0240624,12.2668,0.0196964C12.2374,0.0153303,12.2078,0.0116891,12.1782,0.00877273C12.1486,0.00585636,12.1189,0.00366848,12.0892,0.00220909C12.0595,0.000748485,12.0298,0.0000181818,12,0.0000181818L12,0C11.1832,0,10.3776,0.0812485,9.58344,0.243745C8.80848,0.402308,8.05679,0.635624,7.32838,0.943695C6.61359,1.24601,5.93389,1.6149,5.28927,2.05037C4.65126,2.48139,4.0597,2.96946,3.51458,3.51458C2.96946,4.0597,2.4814,4.65126,2.05037,5.28927C1.6149,5.93389,1.24601,6.61359,0.943695,7.32838C0.635624,8.05679,0.402308,8.80848,0.243747,9.58344C0.0812491,10.3776,0,11.1832,0,12C0,12.8168,0.0812485,13.6224,0.243745,14.4166C0.402308,15.1915,0.635624,15.9432,0.943695,16.6716C1.24601,17.3864,1.6149,18.0661,2.05037,18.7107C2.4814,19.3487,2.96946,19.9403,3.51458,20.4855C4.0597,21.0305,4.65126,21.5186,5.28927,21.9496C5.93389,22.3852,6.61359,22.7541,7.32838,23.0564C8.05679,23.3644,8.80848,23.5976,9.58344,23.7562C10.3776,23.9187,11.1832,24,12,24C12.8168,24,13.6224,23.9187,14.4166,23.7562C15.1915,23.5976,15.9432,23.3644,16.6716,23.0564C17.3864,22.7541,18.0661,22.3852,18.7107,21.9496C19.3487,21.5186,19.9403,21.0305,20.4855,20.4855C21.0305,19.9403,21.5186,19.3487,21.9496,18.7107C22.3852,18.0661,22.7541,17.3864,23.0564,16.6716C23.3644,15.9432,23.5976,15.1915,23.7562,14.4166Z" fill-rule="evenodd" fill="#B3D4FF" fill-opacity="1"/></g></g></svg>